<svg width="670" height="401" viewBox="0 0 670 401" fill="none" xmlns="http://www.w3.org/2000/svg">
<g clip-path="url(#clip0_1888_402)">
<path d="M512.891 395.978C504.315 388.731 499.105 377.282 500.472 366.137C501.838 354.992 510.299 344.747 521.276 342.38C532.252 340.013 544.764 346.565 548.098 357.287C549.932 336.615 552.047 315.077 563.037 297.473C572.989 281.534 590.225 270.128 608.905 268.087C627.585 266.047 647.253 273.754 658.903 288.498C670.553 303.242 673.406 324.676 665.246 341.604C659.236 354.074 648.162 363.354 636.559 370.904C599.066 395.095 554.098 404.932 509.929 398.606L512.891 395.978Z" fill="#0FC200"/>
<path d="M640.431 274.181C625.018 286.735 610.878 300.776 598.215 316.101C578.399 340.002 562.363 366.8 550.666 395.561C549.81 397.659 553.217 398.572 554.064 396.497C573.201 349.755 603.752 308.558 642.923 276.672C644.682 275.24 642.176 272.76 640.431 274.181Z" fill="white"/>
<path d="M215.652 394.009C227.431 384.055 234.587 368.331 232.71 353.023C230.834 337.715 219.212 323.643 204.136 320.392C189.06 317.142 171.875 326.14 167.296 340.867C164.776 312.474 161.872 282.892 146.777 258.713C133.108 236.82 109.434 221.154 83.7769 218.351C58.1197 215.549 31.1059 226.134 15.1044 246.385C-0.897124 266.636 -4.81502 296.076 6.39201 319.326C14.6478 336.453 29.858 349.2 45.7944 359.57C96.6372 392.653 159.708 406.451 219.72 397.619" fill="#0FC200"/>
<path d="M40.477 226.72C61.6474 243.964 81.069 263.25 98.4609 284.298C115.856 305.325 131.17 327.99 144.188 351.974C151.465 365.428 158.002 379.269 163.77 393.436C164.946 396.318 160.266 397.572 159.103 394.722C148.887 369.747 136.248 345.833 121.366 323.323C106.557 300.894 89.6075 279.955 70.7551 260.8C60.0922 249.971 48.8419 239.736 37.0551 230.142C34.6392 228.175 38.081 224.769 40.477 226.72Z" fill="white"/>
<path d="M480.865 399.63H199.815V111.265C199.815 49.9131 249.729 0 311.08 0H369.601C430.952 0 480.865 49.9131 480.865 111.265V399.63Z" fill="#9D9D9D"/>
<path d="M422.345 399.63H199.815V111.265C199.753 87.7564 207.198 64.842 221.064 45.8579C221.575 45.1612 222.084 44.4736 222.61 43.7934C229.317 34.997 237.299 27.2501 246.291 20.8085C246.799 20.4389 247.309 20.0757 247.826 19.7125C255.351 14.5053 263.491 10.2485 272.06 7.03908C272.569 6.8462 273.087 6.65294 273.605 6.46758C281.355 3.7018 289.389 1.80725 297.559 0.818922C298.065 0.749737 298.585 0.695599 299.105 0.641461C307.066 -0.209751 315.095 -0.209751 323.056 0.641461C323.575 0.695599 324.095 0.74973 324.607 0.819662C332.774 1.80806 340.806 3.70237 348.554 6.46762C349.073 6.65298 349.591 6.84622 350.101 7.03948C358.565 10.2085 366.609 14.4017 374.053 19.5257C374.57 19.881 375.088 20.2442 375.598 20.6073C380.638 24.2054 385.373 28.2138 389.753 32.5916C393.266 36.1031 396.539 39.8462 399.551 43.7957C400.075 44.4736 400.585 45.1613 401.095 45.8568C414.962 64.8411 422.406 87.756 422.345 111.265V399.63Z" fill="#2F2E41"/>
<path d="M404.25 270.655C411.054 270.655 416.57 265.139 416.57 258.335C416.57 251.531 411.054 246.015 404.25 246.015C397.446 246.015 391.93 251.531 391.93 258.335C391.93 265.139 397.446 270.655 404.25 270.655Z" fill="#b6b6b6"/>
<path d="M457.842 390.993H448.402L443.91 354.581L457.843 354.582L457.842 390.993Z" fill="#FFB8B8"/>
<path d="M441.658 388.296H459.864V399.758H430.195C430.195 398.253 430.492 396.763 431.068 395.372C431.644 393.981 432.488 392.717 433.553 391.653C434.617 390.589 435.881 389.744 437.272 389.168C438.662 388.592 440.153 388.296 441.658 388.296Z" fill="#2F2E41"/>
<path d="M504.812 390.993H495.371L490.88 354.581L504.813 354.582L504.812 390.993Z" fill="#FFB8B8"/>
<path d="M488.628 388.296H506.834V399.758H477.165C477.165 398.253 477.462 396.763 478.038 395.372C478.614 393.981 479.458 392.717 480.522 391.653C481.587 390.589 482.851 389.744 484.241 389.168C485.632 388.592 487.123 388.296 488.628 388.296Z" fill="#2F2E41"/>
<path d="M410.485 260.776C409.806 259.775 409.355 258.638 409.163 257.444C408.971 256.25 409.043 255.028 409.374 253.865C409.705 252.702 410.287 251.626 411.079 250.712C411.871 249.798 412.854 249.069 413.958 248.577L446.049 160.129L461.839 168.747L425.199 253.27C425.904 255.18 425.884 257.282 425.142 259.179C424.401 261.075 422.989 262.633 421.176 263.558C419.362 264.483 417.272 264.711 415.302 264.198C413.331 263.686 411.618 262.468 410.485 260.776Z" fill="#FFB8B8"/>
<path d="M499.989 277.395C498.94 276.794 498.036 275.97 497.34 274.981C496.643 273.992 496.173 272.862 495.96 271.672C495.748 270.481 495.799 269.259 496.11 268.09C496.422 266.922 496.985 265.836 497.762 264.909L487.82 171.346L505.79 172.167L509.922 264.198C511.393 265.606 512.297 267.504 512.462 269.533C512.627 271.562 512.042 273.582 510.817 275.209C509.593 276.835 507.815 277.956 505.819 278.359C503.823 278.762 501.749 278.419 499.989 277.395Z" fill="#FFB8B8"/>
<path d="M471.322 143.746C481.767 143.746 490.234 135.279 490.234 124.834C490.234 114.39 481.767 105.922 471.322 105.922C460.877 105.922 452.41 114.39 452.41 124.834C452.41 135.279 460.877 143.746 471.322 143.746Z" fill="#FFB8B8"/>
<path d="M499.869 256.116H442.853L442.921 255.673C443.024 255.009 453.083 189.115 445.664 167.557C444.919 165.438 444.985 163.119 445.848 161.046C446.71 158.973 448.309 157.292 450.337 156.328C460.941 151.334 481.297 145.185 498.478 160.108C501.006 162.34 502.98 165.13 504.244 168.256C505.508 171.383 506.028 174.761 505.762 178.123L499.869 256.116Z" fill="#b6b6b6"/>
<path d="M453.804 198.853L428.135 193.645L440.167 165.132C440.887 162.371 442.673 160.007 445.133 158.561C447.593 157.114 450.527 156.703 453.29 157.416C456.054 158.129 458.421 159.91 459.874 162.366C461.326 164.823 461.745 167.755 461.038 170.52L453.804 198.853Z" fill="#b6b6b6"/>
<path d="M486.678 208.522L485.135 173.147C483.965 166.498 487.772 160.211 493.626 159.184C499.482 158.16 505.201 162.772 506.376 169.471L512.177 202.525L486.678 208.522Z" fill="#b6b6b6"/>
<path d="M497.972 251.881C507.146 286.822 508.147 331.245 505.672 379.701L493.352 378.161L471.022 285.761L458.702 379.701L444.842 378.931C440.701 328.089 436.67 284.441 443.302 255.731L497.972 251.881Z" fill="#2F2E41"/>
<path d="M483.783 139.45C480.255 143.208 473.703 141.191 473.243 136.057C473.207 135.658 473.21 135.257 473.251 134.859C473.488 132.584 474.802 130.52 474.487 128.118C474.416 127.521 474.194 126.951 473.841 126.464C471.029 122.699 464.429 128.148 461.776 124.74C460.149 122.65 462.062 119.359 460.813 117.024C459.165 113.941 454.284 115.462 451.224 113.773C447.818 111.895 448.022 106.67 450.263 103.492C452.997 99.616 457.791 97.5479 462.524 97.2498C467.258 96.9517 471.959 98.2313 476.379 99.9536C481.4 101.91 486.379 104.615 489.469 109.03C493.227 114.399 493.588 121.618 491.709 127.896C490.566 131.716 486.664 136.381 483.783 139.45Z" fill="#2F2E41"/>
<path d="M646.785 400.125H78.2989C78.0562 400.125 77.8237 400.028 77.6524 399.856C77.481 399.684 77.3848 399.451 77.3848 399.209C77.3848 398.966 77.481 398.733 77.6524 398.561C77.8237 398.389 78.0562 398.292 78.2989 398.292H646.785C647.028 398.292 647.26 398.389 647.432 398.561C647.603 398.733 647.699 398.966 647.699 399.209C647.699 399.451 647.603 399.684 647.432 399.856C647.26 400.028 647.028 400.125 646.785 400.125Z" fill="#3F3D56"/>
<path d="M361.13 316.085H261.03C259.712 316.092 258.445 315.576 257.507 314.65C256.568 313.724 256.036 312.463 256.025 311.145V87.7148C256.036 86.3965 256.568 85.1361 257.507 84.21C258.445 83.2839 259.712 82.7679 261.03 82.775H361.13C362.449 82.7679 363.716 83.2839 364.654 84.21C365.593 85.1361 366.125 86.3965 366.135 87.7148V311.145C366.125 312.463 365.593 313.724 364.654 314.65C363.716 315.576 362.449 316.092 361.13 316.085Z" fill="white"/>
<path d="M366.135 155.07H256.025V156.61H366.135V155.07Z" fill="#CCCCCC"/>
<path d="M366.52 242.935H256.41V244.475H366.52V242.935Z" fill="#CCCCCC"/>
<path d="M292.215 82.775H290.675V316.855H292.215V82.775Z" fill="#CCCCCC"/>
<path d="M330.715 82.775H329.175V316.855H330.715V82.775Z" fill="#CCCCCC"/>
</g>
<defs>
<clipPath id="clip0_1888_402">
<rect width="669.9" height="400.507" fill="white"/>
</clipPath>
</defs>
</svg>
