<svg width="669" height="594" viewBox="0 0 669 594" fill="none" xmlns="http://www.w3.org/2000/svg">
<g clip-path="url(#clip0_2042_728)">
<path d="M595.871 0H80.7209C68.7032 0 58.9609 9.74228 58.9609 21.76V404.71C58.9609 416.728 68.7032 426.47 80.7209 426.47H595.871C607.889 426.47 617.631 416.728 617.631 404.71V21.76C617.631 9.74228 607.889 0 595.871 0Z" fill="#D7D7D8"/>
<path d="M80.7209 5C71.4809 5 63.9609 12.52 63.9609 21.76V404.7C63.9609 413.94 71.4809 421.46 80.7209 421.46H595.871C605.111 421.46 612.631 413.94 612.631 404.7V21.76C612.631 12.52 605.111 5 595.871 5H80.7209Z" fill="white"/>
<path d="M340.279 2.55005H336.289V424.39H340.279V2.55005Z" fill="#D7D7D8"/>
<path d="M314.57 71.2299C317.69 71.2299 320.22 68.7003 320.22 65.5799C320.22 62.4595 317.69 59.9299 314.57 59.9299C311.45 59.9299 308.92 62.4595 308.92 65.5799C308.92 68.7003 311.45 71.2299 314.57 71.2299Z" fill="#D7D7D8"/>
<path d="M362.009 71.2299C365.13 71.2299 367.659 68.7003 367.659 65.5799C367.659 62.4595 365.13 59.9299 362.009 59.9299C358.889 59.9299 356.359 62.4595 356.359 65.5799C356.359 68.7003 358.889 71.2299 362.009 71.2299Z" fill="#D7D7D8"/>
<path d="M314.57 145.06C317.69 145.06 320.22 142.53 320.22 139.41C320.22 136.29 317.69 133.76 314.57 133.76C311.45 133.76 308.92 136.29 308.92 139.41C308.92 142.53 311.45 145.06 314.57 145.06Z" fill="#D7D7D8"/>
<path d="M362.009 145.06C365.13 145.06 367.659 142.53 367.659 139.41C367.659 136.29 365.13 133.76 362.009 133.76C358.889 133.76 356.359 136.29 356.359 139.41C356.359 142.53 358.889 145.06 362.009 145.06Z" fill="#D7D7D8"/>
<path d="M314.57 218.88C317.69 218.88 320.22 216.35 320.22 213.23C320.22 210.11 317.69 207.58 314.57 207.58C311.45 207.58 308.92 210.11 308.92 213.23C308.92 216.35 311.45 218.88 314.57 218.88Z" fill="#D7D7D8"/>
<path d="M362.009 218.88C365.13 218.88 367.659 216.35 367.659 213.23C367.659 210.11 365.13 207.58 362.009 207.58C358.889 207.58 356.359 210.11 356.359 213.23C356.359 216.35 358.889 218.88 362.009 218.88Z" fill="#D7D7D8"/>
<path d="M314.57 292.71C317.69 292.71 320.22 290.18 320.22 287.06C320.22 283.939 317.69 281.41 314.57 281.41C311.45 281.41 308.92 283.939 308.92 287.06C308.92 290.18 311.45 292.71 314.57 292.71Z" fill="#D7D7D8"/>
<path d="M362.009 292.71C365.13 292.71 367.659 290.18 367.659 287.06C367.659 283.939 365.13 281.41 362.009 281.41C358.889 281.41 356.359 283.939 356.359 287.06C356.359 290.18 358.889 292.71 362.009 292.71Z" fill="#D7D7D8"/>
<path d="M314.57 366.53C317.69 366.53 320.22 364 320.22 360.88C320.22 357.76 317.69 355.23 314.57 355.23C311.45 355.23 308.92 357.76 308.92 360.88C308.92 364 311.45 366.53 314.57 366.53Z" fill="#D7D7D8"/>
<path d="M362.009 366.53C365.13 366.53 367.659 364 367.659 360.88C367.659 357.76 365.13 355.23 362.009 355.23C358.889 355.23 356.359 357.76 356.359 360.88C356.359 364 358.889 366.53 362.009 366.53Z" fill="#D7D7D8"/>
<path d="M315.089 62.9699L314.039 61.2699C314.299 61.1099 340.139 45.4999 362.579 61.2999L361.429 62.9399C340.069 47.8999 315.329 62.8199 315.089 62.9699Z" fill="#D7D7D8"/>
<path d="M315.089 69.9001L314.039 68.2001C314.299 68.0401 340.139 52.4301 362.579 68.2301L361.429 69.8701C340.069 54.8301 315.329 69.7501 315.089 69.9001Z" fill="#D7D7D8"/>
<path d="M315.089 137.12L314.039 135.42C314.299 135.26 340.139 119.65 362.579 135.45L361.429 137.09C340.069 122.05 315.329 136.97 315.089 137.12Z" fill="#D7D7D8"/>
<path d="M315.089 144.06L314.039 142.36C314.299 142.2 340.139 126.59 362.579 142.39L361.429 144.03C340.069 128.99 315.329 143.91 315.089 144.06Z" fill="#D7D7D8"/>
<path d="M315.089 211.27L314.039 209.57C314.299 209.41 340.139 193.8 362.579 209.6L361.429 211.24C340.069 196.2 315.329 211.12 315.089 211.27Z" fill="#D7D7D8"/>
<path d="M315.089 218.21L314.039 216.51C314.299 216.35 340.129 200.74 362.579 216.54L361.429 218.18C340.069 203.14 315.329 218.06 315.089 218.21Z" fill="#D7D7D8"/>
<path d="M315.089 285.42L314.039 283.72C314.299 283.56 340.139 267.95 362.579 283.75L361.429 285.39C340.069 270.36 315.329 285.27 315.089 285.42Z" fill="#D7D7D8"/>
<path d="M315.089 292.36L314.039 290.66C314.299 290.5 340.129 274.89 362.579 290.69L361.429 292.33C340.069 277.29 315.329 292.21 315.089 292.36Z" fill="#D7D7D8"/>
<path d="M315.089 359.57L314.039 357.87C314.299 357.71 340.139 342.1 362.579 357.9L361.429 359.53C340.069 344.49 315.329 359.41 315.089 359.56V359.57Z" fill="#D7D7D8"/>
<path d="M315.089 366.51L314.039 364.81C314.299 364.65 340.139 349.04 362.579 364.84L361.429 366.47C340.069 351.43 315.329 366.35 315.089 366.5V366.51Z" fill="#D7D7D8"/>
<path d="M464.849 111.77C464.849 111.77 444.269 114.09 442.939 145.96C441.829 172.52 439.569 187.32 450.379 192.86C454.239 194.84 458.779 195.01 462.909 193.66L507.009 179.16C507.009 179.16 507.669 131.36 492.399 119.74C477.129 108.12 464.849 111.77 464.849 111.77Z" fill="#2F2E43"/>
<path d="M489.16 185.03L466.84 192.37V160.24H487.09L489.16 185.03Z" fill="#F3A3A6"/>
<path d="M420.929 367.41C419.719 374.77 414.809 380.05 409.969 379.2C405.119 378.35 402.179 371.69 403.389 364.33C403.829 361.38 404.999 358.59 406.789 356.2L412.319 325.08L427.369 328.23L420.319 358.57C421.249 361.44 421.459 364.47 420.929 367.41Z" fill="#F3A3A6"/>
<path d="M472.03 574.33H451.13L439.01 462.64H471.32L472.03 574.33Z" fill="#F3A3A6"/>
<path d="M430.771 592.29C428.571 592.29 426.611 592.24 425.141 592.1C419.591 591.59 414.291 587.49 411.631 585.1C410.441 584.03 410.051 582.31 410.671 580.83C411.121 579.77 412.011 578.98 413.121 578.66L427.791 574.47L451.551 558.44L451.821 558.92C451.921 559.1 454.251 563.3 455.031 566.14C455.331 567.22 455.251 568.12 454.801 568.82C454.491 569.3 454.051 569.58 453.701 569.74C454.131 570.19 455.481 571.1 459.631 571.76C465.701 572.72 466.961 566.44 467.021 566.18L467.061 565.97L467.241 565.85C470.121 563.99 471.901 563.15 472.511 563.33C472.891 563.44 473.531 563.64 475.251 580.74C475.421 581.28 476.631 585.21 475.811 588.98C474.921 593.08 457.031 591.67 453.451 591.34C453.351 591.35 439.961 592.3 430.781 592.3L430.771 592.29Z" fill="#2F2E43"/>
<path d="M519.26 574.33H498.35L486.23 462.64H518.54L519.26 574.33Z" fill="#F3A3A6"/>
<path d="M477.999 592.29C475.799 592.29 473.839 592.24 472.369 592.1C466.819 591.59 461.519 587.49 458.859 585.1C457.669 584.03 457.279 582.31 457.899 580.83C458.349 579.77 459.239 578.98 460.349 578.66L475.019 574.47L498.779 558.44L499.049 558.92C499.149 559.1 501.479 563.3 502.259 566.14C502.559 567.22 502.479 568.12 502.029 568.82C501.719 569.3 501.279 569.58 500.929 569.74C501.359 570.19 502.709 571.1 506.859 571.76C512.929 572.72 514.189 566.44 514.249 566.18L514.289 565.97L514.469 565.85C517.359 563.99 519.129 563.15 519.739 563.33C520.119 563.44 520.759 563.64 522.479 580.74C522.649 581.28 523.859 585.21 523.039 588.98C522.149 593.08 504.259 591.67 500.679 591.34C500.579 591.35 487.189 592.3 478.009 592.3L477.999 592.29Z" fill="#2F2E43"/>
<path d="M525.269 299.99H423.699L460.209 179.82H500.709L525.269 299.99Z" fill="#B6B6B6"/>
<path d="M466.599 179.84C466.599 179.84 441.369 179.18 438.719 185.82C436.059 192.46 404.859 350.47 404.859 350.47H425.439L466.599 179.85V179.84Z" fill="#B6B6B6"/>
<path d="M469.599 169.13C481.882 169.13 491.839 159.173 491.839 146.89C491.839 134.607 481.882 124.65 469.599 124.65C457.317 124.65 447.359 134.607 447.359 146.89C447.359 159.173 457.317 169.13 469.599 169.13Z" fill="#F3A3A6"/>
<path d="M463.521 120.07C463.521 120.07 451.281 169.77 464.891 193L445.721 188.93C445.721 188.93 438.291 134.54 453.231 124.65L463.521 120.07Z" fill="#2F2E43"/>
<path d="M504.16 299.99H437.5L401.03 449.68C400.36 456 404.37 461.9 410.51 463.55C430.52 468.91 478.54 476.5 551.21 455.35C558.2 453.32 562.17 445.94 559.98 438.99L504.16 299.99Z" fill="#2F2E43"/>
<path d="M668.6 592.29C668.6 592.95 668.07 593.48 667.41 593.48H1.19C0.53 593.48 0 592.95 0 592.29C0 591.63 0.53 591.1 1.19 591.1H667.41C668.07 591.1 668.6 591.63 668.6 592.29Z" fill="#2F2E43"/>
<path d="M477.211 179.82L497.941 178.91C506.921 179.59 515.041 184.47 519.851 192.08C534.501 215.24 561.911 264.05 537.441 270.74C505.181 279.55 489.551 230.5 489.551 230.5L477.211 179.82Z" fill="#B6B6B6"/>
<path d="M458.1 197.46L508.86 160.5C509.46 160.06 510.3 160.2 510.74 160.8L511.97 162.49C512.41 163.09 512.27 163.93 511.67 164.37L460.92 201.33H460.91L454.18 204.23L453.67 203.53L458.1 197.46Z" fill="#2F2E43"/>
<path d="M470.101 194.37C465.841 188.25 465.691 181.04 469.751 178.27C473.821 175.5 480.571 178.23 484.831 184.35C486.571 186.77 487.671 189.59 488.051 192.55L505.761 218.73L492.771 226.96L476.691 200.28C474.021 198.87 471.761 196.84 470.101 194.37Z" fill="#F3A3A6"/>
<path d="M480.58 215.54L495.21 202.07L524.14 229.01L497.24 247.4L480.58 215.54Z" fill="#B6B6B6"/>
<path d="M110.831 75.8999C131.381 75.1099 151.951 74.7699 172.521 74.8899C193.091 75.0099 213.321 75.5799 233.691 76.6099C245.291 77.1899 256.871 77.9199 268.451 78.7999C270.381 78.9499 270.371 75.9399 268.451 75.7999C247.941 74.2499 227.401 73.1599 206.841 72.5199C186.281 71.8799 166.041 71.7199 145.641 71.9899C134.031 72.1499 122.421 72.4499 110.821 72.8999C108.901 72.9699 108.891 75.9699 110.821 75.8999H110.831Z" fill="#B6B6B6"/>
<path d="M110.831 109.84C131.381 109.05 151.951 108.71 172.521 108.83C193.091 108.95 213.321 109.52 233.691 110.55C245.291 111.13 256.871 111.86 268.451 112.74C270.381 112.89 270.371 109.88 268.451 109.74C247.941 108.19 227.401 107.1 206.841 106.46C186.281 105.82 166.041 105.66 145.641 105.93C134.031 106.09 122.421 106.39 110.821 106.84C108.901 106.91 108.891 109.91 110.821 109.84H110.831Z" fill="#2F2E43"/>
<path d="M110.83 143.78C127.51 143.13 144.2 142.39 160.9 142.1C175.18 141.85 189.46 142.08 203.72 142.77C213.89 143.26 224.05 143.95 234.21 144.71C236.14 144.86 236.13 141.85 234.21 141.71C217.57 140.45 200.91 139.42 184.22 139.1C169.94 138.83 155.65 139.14 141.38 139.62C131.2 139.97 121.02 140.38 110.83 140.78C108.91 140.85 108.9 143.85 110.83 143.78Z" fill="#2F2E43"/>
<path d="M110.83 177.72C128.49 177.04 146.16 176.32 163.83 176.06C179.65 175.82 195.48 176.03 211.29 176.75C221.82 177.23 232.34 177.9 242.86 178.7C244.79 178.85 244.78 175.84 242.86 175.7C225.24 174.37 207.6 173.38 189.94 173.08C174.11 172.8 158.28 173.08 142.46 173.58C131.92 173.91 121.38 174.32 110.84 174.73C108.92 174.8 108.91 177.8 110.84 177.73L110.83 177.72Z" fill="#2F2E43"/>
<path d="M110.83 211.65C126.89 211.03 142.93 210.05 158.98 209.3C172.24 208.68 185.5 208.47 198.77 208.91C208.71 209.24 218.64 209.86 228.55 210.61C230.48 210.76 230.47 207.75 228.55 207.61C212.55 206.4 196.53 205.55 180.48 205.67C167.19 205.77 153.93 206.54 140.67 207.25C130.73 207.78 120.78 208.26 110.83 208.65C108.91 208.72 108.9 211.73 110.83 211.65Z" fill="#2F2E43"/>
<path d="M110.831 245.59C131.381 244.8 151.951 244.46 172.521 244.58C193.091 244.7 213.321 245.27 233.691 246.3C245.291 246.88 256.871 247.61 268.451 248.49C270.381 248.64 270.371 245.63 268.451 245.49C247.941 243.94 227.401 242.85 206.841 242.21C186.281 241.57 166.041 241.41 145.641 241.68C134.031 241.84 122.421 242.14 110.821 242.59C108.901 242.66 108.891 245.66 110.821 245.59H110.831Z" fill="#2F2E43"/>
</g>
<defs>
<clipPath id="clip0_2042_728">
<rect width="668.6" height="593.48" fill="white"/>
</clipPath>
</defs>
</svg>
