<svg width="40" height="40" viewBox="0 0 40 40" fill="none" xmlns="http://www.w3.org/2000/svg">
<rect width="40" height="40" rx="8" fill="#343F56"/>
<path d="M20.7313 9C22.6513 9 24.3366 9.33067 25.7873 9.992C27.2379 10.6533 28.4753 11.6347 29.4993 12.936C30.5233 14.2373 27.9099 16.8933 27.0353 15.784C26.1606 14.6747 25.2006 13.864 24.1553 13.352C23.1313 12.8187 21.9366 12.552 20.5713 12.552C19.6753 12.552 18.9286 12.6693 18.3313 12.904C17.7553 13.1387 17.3286 13.448 17.0513 13.832C16.7953 14.216 16.6673 14.6427 16.6673 15.112C16.6673 15.688 16.8913 16.1787 17.3393 16.584C17.7873 16.968 18.5553 17.288 19.6433 17.544L23.5793 18.44C23.5793 18.44 26.8168 19.0696 28.0593 20.552C29.0223 21.701 29.4353 22.664 29.4353 24.136C29.4353 25.5227 29.0726 26.7173 28.3473 27.72C27.6219 28.7013 26.6086 29.4587 25.3073 29.992C24.0059 30.504 22.5126 30.76 20.8273 30.76C19.3553 30.76 18.0006 30.5893 16.7633 30.248C15.5473 29.8853 14.4593 29.3947 13.4993 28.776C12.5393 28.1573 11.7393 27.4427 11.0993 26.632C10.4593 25.8213 13.1046 22.9733 13.5953 23.656C14.0859 24.3387 14.6939 24.9467 15.4193 25.48C16.1446 26.0133 16.9659 26.44 17.8833 26.76C18.8219 27.0587 19.8033 27.208 20.8273 27.208C21.7019 27.208 22.4379 27.112 23.0353 26.92C23.6539 26.7067 24.1126 26.4187 24.4113 26.056C24.7313 25.672 24.8913 25.2133 24.8913 24.68C24.8913 24.1253 24.6993 23.656 24.3153 23.272C23.9526 22.8667 23.2699 22.5573 22.2673 22.344C22.2673 22.344 19.2166 21.6827 17.9793 21.384C16.7419 21.0853 15.6753 20.7013 14.7793 20.232C13.9046 19.7413 13.2326 19.1227 12.7633 18.376C12.3153 17.608 12.0913 16.7013 12.0913 15.656C12.0913 14.3973 12.4326 13.2667 13.1153 12.264C13.7979 11.2613 14.7793 10.472 16.0593 9.896C17.3606 9.29867 18.9179 9 20.7313 9Z" fill="white"/>
</svg>
