<svg width="57" height="64" viewBox="0 0 57 64" fill="none" xmlns="http://www.w3.org/2000/svg">
<path d="M12 17.2391V15.6791C12 9.24115 12 6.02215 14.07 4.22815C16.14 2.43415 19.323 2.89015 25.698 3.79915L38.544 5.63515C45.915 6.68815 49.599 7.21315 51.798 9.75115C54 12.2892 54 16.0122 54 23.4552V40.2311C54 47.6741 54 51.3972 51.798 53.9352C49.599 56.4732 45.915 56.9982 38.547 58.0512L25.698 59.8871C19.323 60.7961 16.137 61.2522 14.07 59.4582C12 57.6642 12 54.4452 12 48.0072V47.0412" stroke="#343f56" stroke-width="6"/>
<path d="M39 31.8433L41.34 29.9683L42.84 31.8433L41.34 33.7183L39 31.8433ZM3 34.8433C2.20435 34.8433 1.44129 34.5272 0.87868 33.9646C0.31607 33.402 0 32.6389 0 31.8433C0 31.0476 0.31607 30.2846 0.87868 29.7219C1.44129 29.1593 2.20435 28.8433 3 28.8433V34.8433ZM29.34 14.9683L41.34 29.9683L36.66 33.7183L24.66 18.7183L29.34 14.9683ZM41.34 33.7183L29.34 48.7183L24.66 44.9683L36.66 29.9683L41.34 33.7183ZM39 34.8433H3V28.8433H39V34.8433Z" fill="#343f56"/>
</svg>
