<svg width="63" height="63" viewBox="0 0 63 63" fill="none" xmlns="http://www.w3.org/2000/svg">
<path fill-rule="evenodd" clip-rule="evenodd" d="M31.2 62.4C39.4748 62.4 47.4106 59.1129 53.2617 53.2617C59.1129 47.4106 62.4 39.4748 62.4 31.2C62.4 22.9252 59.1129 14.9894 53.2617 9.13827C47.4106 3.28713 39.4748 0 31.2 0C22.9252 0 14.9894 3.28713 9.13827 9.13827C3.28713 14.9894 0 22.9252 0 31.2C0 39.4748 3.28713 47.4106 9.13827 53.2617C14.9894 59.1129 22.9252 62.4 31.2 62.4ZM19.2153 19.461C18.1038 21.1341 17.55 22.7877 17.55 24.414C17.55 25.2057 17.901 25.9428 18.603 26.6214C19.305 27.3 20.163 27.6354 21.1809 27.6354C22.9086 27.6354 24.0825 26.6682 24.7026 24.726C25.3578 22.8735 26.1573 21.4695 27.105 20.514C28.0527 19.5624 29.523 19.0866 31.5276 19.0866C33.2397 19.0866 34.6359 19.5546 35.7201 20.5023C36.8004 21.4461 37.3425 22.6083 37.3425 23.9811C37.3472 24.6698 37.1638 25.3468 36.8121 25.9389C36.4544 26.5426 36.0133 27.0927 35.5017 27.573C34.6811 28.3233 33.8383 29.0491 32.9745 29.7492C31.6485 30.849 30.5916 31.7967 29.8077 32.5962C29.0277 33.3957 28.3959 34.3239 27.924 35.3769C26.6682 40.2324 33.189 40.6224 34.6944 37.1553C34.8777 36.8199 35.1546 36.4533 35.5251 36.0477C35.8995 35.646 36.3948 35.178 37.0149 34.6437C38.5928 33.3294 40.1453 31.985 41.6715 30.6111C42.5334 29.8155 43.2783 28.8639 43.9062 27.7641C44.5535 26.5904 44.8791 25.2665 44.85 23.9265C44.85 22.074 44.3001 20.358 43.1964 18.7785C42.0966 17.1951 40.5366 15.9471 38.5164 15.0267C36.4962 14.1102 34.1679 13.65 31.5276 13.65C28.6884 13.65 26.2041 14.196 24.0747 15.2997C21.9453 16.3995 20.3268 17.7879 19.2153 19.461ZM27.5613 47.073C27.5613 48.1073 27.9722 49.0993 28.7036 49.8307C29.435 50.5621 30.427 50.973 31.4613 50.973C32.4956 50.973 33.4876 50.5621 34.219 49.8307C34.9504 49.0993 35.3613 48.1073 35.3613 47.073C35.3613 46.0387 34.9504 45.0467 34.219 44.3153C33.4876 43.5839 32.4956 43.173 31.4613 43.173C30.427 43.173 29.435 43.5839 28.7036 44.3153C27.9722 45.0467 27.5613 46.0387 27.5613 47.073Z" fill="#343f56"/>
</svg>
