<svg width="58" height="60" viewBox="0 0 58 60" fill="none" xmlns="http://www.w3.org/2000/svg">
<path d="M10.335 5.94C10.335 4.36461 10.9608 2.85375 12.0748 1.73979C13.1888 0.62582 14.6996 2.43658e-07 16.275 2.43658e-07H34.6059C35.3864 -0.000223298 36.1592 0.15337 36.8803 0.452002C37.6014 0.750633 38.2566 1.18845 38.8084 1.74042L56.1146 19.0496C57.2286 20.1633 57.8547 21.6739 57.855 23.2492V53.46C57.855 55.0354 57.2292 56.5462 56.1152 57.6602C55.0013 58.7742 53.4904 59.4 51.915 59.4H45.8265C47.068 58.1823 48.0065 56.6557 48.5144 54.945H51.915C52.3089 54.945 52.6866 54.7885 52.9651 54.5101C53.2436 54.2316 53.4 53.8538 53.4 53.46V23.76H40.035C38.4596 23.76 36.9488 23.1342 35.8348 22.0202C34.7208 20.9062 34.095 19.3954 34.095 17.82V4.455H16.275C15.8812 4.455 15.5035 4.61146 15.225 4.88995C14.9465 5.16844 14.79 5.54615 14.79 5.94V37.5022C14.0921 37.9893 13.4535 38.5625 12.8952 39.201C12.3859 37.982 11.4851 36.9673 10.335 36.3172V5.94ZM38.55 7.7814V17.82C38.55 18.2138 38.7065 18.5916 38.985 18.8701C39.2635 19.1485 39.6412 19.305 40.035 19.305H50.0736L38.55 7.7814ZM10.335 41.3988C10.335 39.7297 9.04901 38.8327 8.13128 38.5744C7.21355 38.316 5.7434 38.408 4.83458 39.6762C3.89012 40.9919 2.57738 42.4651 1.03298 43.3798C0.54453 43.6902 0.196027 44.1784 0.0612547 44.7412C-0.0735173 45.304 0.0160226 45.8971 0.310917 46.395C0.605812 46.893 1.08291 47.2566 1.6412 47.4089C2.19949 47.5612 2.79515 47.4903 3.30206 47.2111C4.26137 46.6468 5.12267 45.9637 5.88002 45.245V57.1755C5.88002 57.7662 6.1147 58.3328 6.53244 58.7505C6.95018 59.1683 7.51675 59.403 8.10752 59.403C8.69829 59.403 9.26486 59.1683 9.6826 58.7505C10.1003 58.3328 10.335 57.7662 10.335 57.1755V41.3988ZM13.305 46.035C13.305 44.0658 14.0873 42.1772 15.4798 40.7847C16.8722 39.3923 18.7608 38.61 20.73 38.61C22.6993 38.61 24.5878 39.3923 25.9803 40.7847C27.3727 42.1772 28.155 44.0658 28.155 46.035V51.975C28.155 53.9442 27.3727 55.8328 25.9803 57.2253C24.5878 58.6177 22.6993 59.4 20.73 59.4C18.7608 59.4 16.8722 58.6177 15.4798 57.2253C14.0873 55.8328 13.305 53.9442 13.305 51.975V46.035ZM20.73 43.065C19.9423 43.065 19.1869 43.3779 18.6299 43.9349C18.0729 44.4919 17.76 45.2473 17.76 46.035V51.975C17.76 52.7627 18.0729 53.5181 18.6299 54.0751C19.1869 54.6321 19.9423 54.945 20.73 54.945C21.5177 54.945 22.2731 54.6321 22.8301 54.0751C23.3871 53.5181 23.7 52.7627 23.7 51.975V46.035C23.7 45.2473 23.3871 44.4919 22.8301 43.9349C22.2731 43.3779 21.5177 43.065 20.73 43.065ZM38.55 38.61C36.5808 38.61 34.6922 39.3923 33.2998 40.7847C31.9073 42.1772 31.125 44.0658 31.125 46.035V51.975C31.125 53.9442 31.9073 55.8328 33.2998 57.2253C34.6922 58.6177 36.5808 59.4 38.55 59.4C40.5193 59.4 42.4078 58.6177 43.8003 57.2253C45.1927 55.8328 45.975 53.9442 45.975 51.975V46.035C45.975 44.0658 45.1927 42.1772 43.8003 40.7847C42.4078 39.3923 40.5193 38.61 38.55 38.61ZM35.58 46.035C35.58 45.2473 35.8929 44.4919 36.4499 43.9349C37.0069 43.3779 37.7623 43.065 38.55 43.065C39.3377 43.065 40.0931 43.3779 40.6501 43.9349C41.2071 44.4919 41.52 45.2473 41.52 46.035V51.975C41.52 52.7627 41.2071 53.5181 40.6501 54.0751C40.0931 54.6321 39.3377 54.945 38.55 54.945C37.7623 54.945 37.0069 54.6321 36.4499 54.0751C35.8929 53.5181 35.58 52.7627 35.58 51.975V46.035Z" fill="#343f56"/>
</svg>
