<svg width="53" height="70" viewBox="0 0 53 70" fill="none" xmlns="http://www.w3.org/2000/svg">
<path d="M26.6749 23.1088L30.4189 19.3648C32.2776 17.4449 33.307 14.8712 33.2854 12.1991C33.2637 9.52693 32.1925 6.97037 30.303 5.08081C28.4134 3.19125 25.8568 2.12011 23.1847 2.09842C20.5125 2.07672 17.9389 3.10621 16.0189 4.96484L12.2749 8.70884C11.0164 9.9674 9.48133 10.9178 7.78789 11.4823L1.71973 13.504V14.224L21.1597 33.664H21.8797L23.9044 27.5959C24.466 25.9053 25.4164 24.3703 26.6749 23.1088ZM26.6749 23.1088L26.9773 23.584C30.405 29.5427 35.9045 34.0325 42.4285 36.1984M42.4285 36.1984C42.8311 35.3108 43.5191 34.5854 44.3861 34.14C45.2531 33.6947 46.2452 33.5556 47.2012 33.7454C48.1572 33.9352 49.0209 34.4427 49.652 35.1855C50.2831 35.9282 50.6445 36.8625 50.6775 37.8366C50.7104 38.8107 50.413 39.7674 49.8336 40.5511C49.2541 41.3348 48.4266 41.8995 47.4856 42.1535C46.5446 42.4075 45.5454 42.3358 44.6503 41.95C43.7552 41.5643 43.0169 40.8872 42.5552 40.0288C36.0121 42.7941 30.647 47.7679 27.3949 54.0832C26.5252 55.7767 26.1997 57.6832 26.1997 59.584M42.4285 36.1984C42.152 36.8032 42.0167 37.4639 42.0386 38.1285C42.0606 38.7932 42.2365 39.4437 42.5524 40.0288M10.3597 30.784C9.98152 31.1623 9.53252 31.4623 9.03837 31.6669C8.54422 31.8716 8.01459 31.977 7.47973 31.977C6.39952 31.977 5.36355 31.5479 4.59973 30.784C4.22152 30.4058 3.92151 29.9568 3.71683 29.4627C3.51214 28.9685 3.40679 28.4389 3.40679 27.904C3.40679 26.8238 3.8359 25.7879 4.59973 25.024M30.4189 4.96772L33.6877 1.69604M26.1997 59.584C42.0397 59.584 50.6797 65.344 50.6797 65.344V68.224H1.71973V65.344C1.71973 65.344 10.3597 59.584 26.1997 59.584Z" stroke="#343f56" stroke-width="2.88"/>
</svg>
